#!OML:ASF H:\Terrain\Patient Classification 1\Animal1\Tuesday\Animal1.ASF
:FULLY-SPECIFIED
:DEGREES
1428
root 6.83321 16.3427 -3.74248 9.25899 -42.3657 -1.95239
lowerback -2.79762 -0.290012 -1.28919
upperback -11.4961 -0.465359 2.64593
thorax -10.6422 -0.0508119 3.61077
lowerneck -3.96879 2.20728 -2.54236
upperneck 4.68802 2.71094 7.25088
head 2.05039 1.49005 2.87475
rclavicle 7.196e-014 1.07344e-014
rhumerus -55.1561 -30.4842 44.8517
rradius 24.8711
rwrist -49.8983
rhand -59.0571 -325.782
rfingers 7.12502
rthumb -31.2538 6.86534
lclavicle 7.196e-014 1.07344e-014
lhumerus -75.9234 53.2027 -75.501
lradius 22.7647
lwrist -21.6836
lhand -11.4503 76.8314
lfingers 7.12502
lthumb 14.5866 613.702
rfemur -29.8261 24.57 9.2121
rtibia 21.6469
rfoot -12.2425 -22.237
rtoes -3.59655
lfemur 0.866692 -16.6682 -23.6994
ltibia 16.9112
lfoot -16.9781 23.4073
ltoes -9.50185
1429
root 6.82573 16.3445 -3.7383 9.28336 -42.4674 -2.01044
lowerback -3.156 -0.311969 -1.0263
upperback -11.3786 -0.492428 2.57825
thorax -10.2891 -0.0999524 3.38096
lowerneck -4.05321 2.21201 -2.52413
upperneck 4.84478 2.69757 7.42924
head 2.1173 1.49144 2.93755
rclavicle 1.22054e-013 4.17448e-014
rhumerus -53.9196 -31.4682 43.3777
rradius 24.8438
rwrist -49.1098
rhand -57.8234 -328.817
rfingers 7.12502
rthumb -30.0774 3.60993
lclavicle 1.22054e-013 4.17448e-014
lhumerus -74.3105 53.7919 -73.0705
lradius 22.9178
lwrist -22.0568
lhand -11.2015 75.7704
lfingers 7.12502
lthumb 14.8264 614.78
rfemur -29.8191 24.4266 9.35488
rtibia 21.7043
rfoot -12.1402 -22.065
rtoes -5.06009
lfemur 0.980506 -16.5701 -23.6768
ltibia 16.8613
lfoot -17.7615 23.1384
ltoes -7.60172
1430
root 6.81831 16.3391 -3.73518 9.4621 -42.6456 -2.41458
lowerback -3.36763 -0.23437 -0.615404
upperback -11.3238 -0.377974 2.58989
thorax -10.1069 -0.0844513 3.15135
lowerneck -4.21134 2.19802 -2.55968
upperneck 5.24623 2.64033 7.73966
head 2.28053 1.47844 3.06281
rclavicle 7.43455e-014 3.77691e-014
rhumerus -52.3933 -32.0863 41.5377
rradius 24.9177
rwrist -48.5134
rhand -57.7952 -328.623
rfingers 7.12502
rthumb -30.0504 3.79931
lclavicle 7.43455e-014 3.77691e-014
lhumerus -71.443 54.401 -69.0555
lradius 23.1986
lwrist -21.6531
lhand -10.6731 74.704
lfingers 7.12502
lthumb 15.3354 615.885
rfemur -29.7981 24.2592 9.85863
rtibia 21.8985
rfoot -10.9589 -22.0344
rtoes -8.37903
lfemur 1.22386 -16.3623 -23.3871
ltibia 16.6444
lfoot -17.8933 23.0453
ltoes -6.3546
1431
root 6.80812 16.3328 -3.73101 9.18907 -42.8599 -2.445
lowerback -3.35852 -0.19611 -0.496757
upperback -11.3057 -0.325971 2.56069
thorax -10.0942 -0.071727 3.05035
lowerneck -3.83969 2.21529 -2.59404
upperneck 5.33207 2.64596 7.93433
head 2.23856 1.47949 3.12894
rclavicle 3.43897e-014 -5.56597e-015
rhumerus -50.1923 -32.1914 38.8531
rradius 25.1155
rwrist -48.5636
rhand -57.5998 -328.437
rfingers 7.12502
rthumb -29.864 3.95102
lclavicle 3.43897e-014 -5.56597e-015
lhumerus -68.0176 54.9129 -64.6198
lradius 23.332
lwrist -20.9089
lhand -10.1131 73.4448
lfingers 7.12502
lthumb 15.8747 617.186
rfemur -29.5787 24.2274 10.096
rtibia 22.1319
rfoot -10.8524 -21.5866
rtoes -9.0472
lfemur 1.71807 -16.2089 -23.4957
ltibia 16.4472
lfoot -17.5145 23.364
ltoes -6.61242
1432
root 6.7991 16.3362 -3.72435 8.55424 -42.9618 -1.94823
lowerback -3.38846 -0.239896 -0.714182
upperback -11.2878 -0.398798 2.4497
thorax -10.0513 -0.0945047 3.05572
lowerneck -3.35944 2.23509 -2.48239
upperneck 5.34033 2.66864 7.82338
head 2.15294 1.48094 3.05862
rclavicle 2.22639e-014 -2.38542e-015
rhumerus -47.9981 -33.2999 36.6939
rradius 25.0819
rwrist -47.3925
rhand -56.5969 -330.484
rfingers 7.12502
rthumb -28.9065 1.73593
lclavicle 2.22639e-014 -2.38542e-015
lhumerus -64.2304 55.2575 -59.6788
lradius 23.5034
lwrist -19.8043
lhand -9.348 72.3092
lfingers 7.12502
lthumb 16.6114 618.382
rfemur -29.3103 23.9698 9.93866
rtibia 22.3632
rfoot -11.502 -20.6563
rtoes -6.85609
lfemur 2.23436 -16.0842 -24.0429
ltibia 16.3198
lfoot -17.1061 23.5052
ltoes -7.91978
1433
root 6.78917 16.3378 -3.72282 8.09421 -43.0015 -1.67398
lowerback -3.47987 -0.283858 -0.835107
upperback -11.1989 -0.465735 2.36714
thorax -9.89094 -0.12299 3.03401
lowerneck -3.63115 2.27208 -2.1991
upperneck 6.08248 2.66973 7.62806
head 2.45296 1.49847 2.96488
rclavicle -2.80286e-014 3.97569e-016
rhumerus -46.3767 -35.9383 35.4395
rradius 24.8561
rwrist -44.6083
rhand -55.6332 -332.956
rfingers 7.12502
rthumb -27.9856 -0.889289
lclavicle -2.80286e-014 3.97569e-016
lhumerus -60.4845 55.7633 -54.6572
lradius 23.8556
lwrist -18.7111
lhand -8.66049 71.5192
lfingers 7.12502
lthumb 17.2732 619.228
rfemur -29.0494 23.5991 10.0145
rtibia 22.568
rfoot -11.6244 -19.3405
rtoes -3.77966
lfemur 2.67337 -15.8335 -24.3303
ltibia 16.1998
lfoot -17.0904 23.2654
ltoes -8.41983
